<svg id="Layer_1" data-name="Layer 1" xmlns="http://www.w3.org/2000/svg" viewBox="0 0 257.12 129.07"><defs><style>.cls-1{fill:#8b8b8c}</style></defs><path class="cls-1" d="M185.89 92.67a7.82 7.82 0 0 1-2.22 5.78 9.3 9.3 0 0 1-7 2.53H165V58.9h10.88a11.16 11.16 0 0 1 7.13 2 6.58 6.58 0 0 1 2.55 5.41v5.82a6 6 0 0 1-.78 3.18 8.5 8.5 0 0 1-4.59 3.06c2.35.6 4 1.53 4.83 2.77a5.71 5.71 0 0 1 .84 3.31zm-9-19v-7.19c0-1-.23-1.68-.69-1.9a4.81 4.81 0 0 0-2-.33v11.6a5.18 5.18 0 0 0 1.76-.18 2.06 2.06 0 0 0 .97-2.04zm0 19.77V82.71c0-1-.23-1.67-.69-1.9a4.81 4.81 0 0 0-2-.33v15.15a5.18 5.18 0 0 0 1.76-.18 2.08 2.08 0 0 0 .97-2.05zM207.35 94.55a5.92 5.92 0 0 1-3 5.53 13.89 13.89 0 0 1-6.85 1.38 13 13 0 0 1-6.85-1.5 6.26 6.26 0 0 1-2.89-5.71V73.87a6.21 6.21 0 0 1 2.83-5.65 12.91 12.91 0 0 1 6.91-1.56 14.1 14.1 0 0 1 6.84 1.34 5.84 5.84 0 0 1 3 5.53v13h-11.23v7.89a2 2 0 0 0 .36 1.28 1.52 1.52 0 0 0 2.16 0 2 2 0 0 0 .36-1.28v-6.79h8.36zM199 81.38v-7.76a1.89 1.89 0 0 0-.36-1.26 1.37 1.37 0 0 0-1.08-.41 1.42 1.42 0 0 0-1 .41 1.71 1.71 0 0 0-.42 1.26v7.76zM228.81 94.55a5.92 5.92 0 0 1-3 5.53 13.92 13.92 0 0 1-6.85 1.38 13 13 0 0 1-6.85-1.5 6.24 6.24 0 0 1-2.89-5.71V73.87a6.21 6.21 0 0 1 2.78-5.65 12.88 12.88 0 0 1 7-1.56 14.13 14.13 0 0 1 6.8 1.34 5.84 5.84 0 0 1 3 5.53v13h-11.23v7.89a2 2 0 0 0 .36 1.28 1.52 1.52 0 0 0 2.16 0 2 2 0 0 0 .36-1.28v-6.79h8.36zm-8.36-13.17v-7.76a1.89 1.89 0 0 0-.36-1.26A1.37 1.37 0 0 0 219 72a1.42 1.42 0 0 0-1 .41 1.71 1.71 0 0 0-.42 1.26v7.76zM250.39 81H242v-7.42c0-1-.48-1.57-1.44-1.57a1.47 1.47 0 0 0-1.08.36 1.56 1.56 0 0 0-.36 1.14V101h-8.36V66.9h8.36V68a5.87 5.87 0 0 1 2.07-1 11.59 11.59 0 0 1 3.1-.38 6.61 6.61 0 0 1 4.35 1.41 4.33 4.33 0 0 1 1.72 3.46zM22.09 78.32c-1.49-1.53-3.09-3.15-4.78-4.87a5.82 5.82 0 0 1-1.81-4v-3.93a1.19 1.19 0 0 1 .38-1 1.76 1.76 0 0 1 1.12-.3 1.55 1.55 0 0 1 1 .34 1.14 1.14 0 0 1 .41.93v7.81h8.39v-7.24a6.73 6.73 0 0 0-2.1-5.23c-1.65-1.49-4.13-2.23-7.46-2.23-3.84 0-6.65.74-8.41 2.23-1.52 1.28-2.29 3.26-2.29 6v4.75a8.4 8.4 0 0 0 2.12 5q.48.62 4.47 4.81 2.41 2.59 4.53 4.77a4.5 4.5 0 0 1 .79 2.78v5A1.34 1.34 0 0 1 18 95a2 2 0 0 1-1.31.36 2.08 2.08 0 0 1-1.26-.36 1.28 1.28 0 0 1-.53-1.06v-9.73H6.54v9.62a6.69 6.69 0 0 0 2 4.92c1.76 1.81 4.55 2.71 8.35 2.71q6 0 8.54-2.28c1.44-1.33 2.16-3.37 2.16-6.14v-5.35a8.75 8.75 0 0 0-1.75-5.16 42.65 42.65 0 0 0-3.75-4.21zM42.19 94.85a2.24 2.24 0 0 1-1-2.11V72h4.51v-5.1h-4.53V60h-8.36v6.9h-3.72V72h3.72v20.76q0 5.28 1.23 6.75c.83 1 3 1.47 6.65 1.47H46v-5.71h-1.59a4.54 4.54 0 0 1-2.22-.42zM64.25 68a14.16 14.16 0 0 0-6.85-1.38 12.94 12.94 0 0 0-6.92 1.56 6.22 6.22 0 0 0-2.82 5.65v20.42a6.25 6.25 0 0 0 2.88 5.75 13 13 0 0 0 6.86 1.5 14 14 0 0 0 6.85-1.38 5.93 5.93 0 0 0 3-5.53v-6.96H58.9v6.81a2 2 0 0 1-.36 1.28 1.3 1.3 0 0 1-1.08.45 1.32 1.32 0 0 1-1.09-.45 2 2 0 0 1-.37-1.28v-7.89h11.25v-13a5.85 5.85 0 0 0-3-5.55zM58.9 81.38H56v-7.76a1.71 1.71 0 0 1 .42-1.26 1.43 1.43 0 0 1 1-.41 1.37 1.37 0 0 1 1.08.41 1.89 1.89 0 0 1 .36 1.26zM86.19 68.16q-2.23-1.5-6.67-1.5A14.33 14.33 0 0 0 72.6 68a5.89 5.89 0 0 0-3.06 5.53v6.79h8.11v-6.69a1.75 1.75 0 0 1 .41-1.26 1.36 1.36 0 0 1 1-.42 1.29 1.29 0 0 1 1.06.42 1.89 1.89 0 0 1 .36 1.26v5.05c0 .72-1.88 2-5.62 3.79s-5.62 4.06-5.62 6.79v6.85a5 5 0 0 0 1.56 4q1.56 1.32 5.29 1.32a14.46 14.46 0 0 0 3.52-.33 2.81 2.81 0 0 0 1.83-1.47V101h7.39V73.87q0-3.97-2.64-5.71zm-5.71 26.45a1.59 1.59 0 0 1-.39 1.17 1.36 1.36 0 0 1-1 .39 1.5 1.5 0 0 1-1.09-.39 1.59 1.59 0 0 1-.39-1.17v-6.19a2.13 2.13 0 0 1 .6-1.57 5.06 5.06 0 0 1 2.29-1zM85.63 19H75.38a13.92 13.92 0 0 1 3.46-7.18 30.22 30.22 0 0 1 3.09-3.25l-5.17-3.96a47.9 47.9 0 0 0-10.17 7.69A17.55 17.55 0 0 0 62 24.44v12h23.63zM139.43 59.2L123.16 4.61H90.81v119.64h23.66V60.44l19.41 63.81h29.21V4.61h-23.66zM104.34 101l-5.17-12.34V101h-8.35V58.9h8.35v18.94l4.33-10.94h8.59l-6 14.94 8.05 19.16zM167.53 4.61V22h10.25a13.89 13.89 0 0 1-3.46 7.18 30.22 30.22 0 0 1-3.09 3.25l5.17 3.93a47.9 47.9 0 0 0 10.17-7.69 17.53 17.53 0 0 0 4.62-12.14v-12z"/></svg>