<svg xmlns="http://www.w3.org/2000/svg" width="31" height="15.22" viewBox="0 0 31 15.22">
  <path id="sNb-logo" d="M29.339,15.735a.994.994,0,0,1-.282.735,1.182,1.182,0,0,1-.89.322H26.683V11.442h1.383a1.419,1.419,0,0,1,.906.254.836.836,0,0,1,.324.688v.74a.763.763,0,0,1-.1.4,1.081,1.081,0,0,1-.584.389,1.016,1.016,0,0,1,.614.352.726.726,0,0,1,.107.421ZM28.195,13.32v-.914c0-.127-.029-.214-.088-.242a.612.612,0,0,0-.254-.042V13.6a.659.659,0,0,0,.224-.023.262.262,0,0,0,.123-.259Zm0,2.513V14.469c0-.127-.029-.212-.088-.242a.611.611,0,0,0-.254-.042v1.926a.659.659,0,0,0,.224-.023.264.264,0,0,0,.123-.261Zm3.872.141a.753.753,0,0,1-.381.7,1.766,1.766,0,0,1-.871.175,1.653,1.653,0,0,1-.871-.191.8.8,0,0,1-.367-.726V13.345a.789.789,0,0,1,.36-.718,1.641,1.641,0,0,1,.878-.2,1.792,1.792,0,0,1,.87.17.742.742,0,0,1,.381.7v1.653H30.638v1a.254.254,0,0,0,.046.163.193.193,0,0,0,.275,0A.254.254,0,0,0,31,15.957v-.863h1.063ZM31.005,14.3v-.987a.24.24,0,0,0-.046-.16.174.174,0,0,0-.137-.052.181.181,0,0,0-.127.052.217.217,0,0,0-.053.16V14.3Zm3.79,1.674a.753.753,0,0,1-.381.7,1.77,1.77,0,0,1-.871.175,1.653,1.653,0,0,1-.871-.191.793.793,0,0,1-.367-.726V13.345a.789.789,0,0,1,.353-.718,1.637,1.637,0,0,1,.89-.2,1.8,1.8,0,0,1,.864.17.742.742,0,0,1,.381.7v1.653H33.366v1a.254.254,0,0,0,.046.163.193.193,0,0,0,.275,0,.254.254,0,0,0,.046-.163v-.863h1.063ZM33.732,14.3v-.987a.24.24,0,0,0-.046-.16.174.174,0,0,0-.139-.046.181.181,0,0,0-.127.052.217.217,0,0,0-.053.16v.987Zm3.806-.048H36.472v-.943c0-.127-.061-.2-.183-.2a.187.187,0,0,0-.137.046.2.2,0,0,0-.046.145v3.495H35.043V12.459h1.063v.14a.746.746,0,0,1,.263-.127,1.473,1.473,0,0,1,.394-.048.84.84,0,0,1,.553.179.55.55,0,0,1,.219.44ZM8.515,13.911c-.189-.195-.393-.4-.608-.619a.74.74,0,0,1-.23-.509v-.5a.151.151,0,0,1,.048-.127.224.224,0,0,1,.142-.038A.2.2,0,0,1,8,12.161a.145.145,0,0,1,.052.118v.993H9.114v-.92a.856.856,0,0,0-.267-.665A1.375,1.375,0,0,0,7.9,11.4a1.642,1.642,0,0,0-1.069.283.939.939,0,0,0-.291.763v.6a1.068,1.068,0,0,0,.27.636q.061.079.568.611.306.329.576.606a.572.572,0,0,1,.1.353V15.9A.17.17,0,0,1,8,16.031a.254.254,0,0,1-.167.046.264.264,0,0,1-.16-.046A.163.163,0,0,1,7.6,15.9V14.659H6.539v1.223a.85.85,0,0,0,.254.625,1.427,1.427,0,0,0,1.062.345,1.617,1.617,0,0,0,1.086-.29,1.012,1.012,0,0,0,.275-.781V15.1a1.112,1.112,0,0,0-.222-.656,5.422,5.422,0,0,0-.477-.535Zm2.555,2.1a.285.285,0,0,1-.127-.268V13.107h.573v-.648h-.576v-.877H9.878v.877H9.405v.648h.473v2.639a1.51,1.51,0,0,0,.156.858c.106.127.381.187.845.187h.675v-.726h-.2A.577.577,0,0,1,11.071,16.012Zm2.8-3.413A1.8,1.8,0,0,0,13,12.423a1.645,1.645,0,0,0-.88.2.791.791,0,0,0-.358.718v2.6a.8.8,0,0,0,.366.731,1.653,1.653,0,0,0,.872.191,1.78,1.78,0,0,0,.871-.175.754.754,0,0,0,.381-.7v-.885H13.195v.866a.254.254,0,0,1-.046.163.165.165,0,0,1-.137.057.168.168,0,0,1-.139-.057.254.254,0,0,1-.047-.163v-1h1.43V13.3A.744.744,0,0,0,13.875,12.6Zm-.68,1.7h-.369v-.987a.217.217,0,0,1,.053-.16.182.182,0,0,1,.127-.052.174.174,0,0,1,.137.052.24.24,0,0,1,.046.16Zm3.469-1.681a1.53,1.53,0,0,0-.848-.191,1.822,1.822,0,0,0-.88.17.749.749,0,0,0-.389.7v.863h1.031v-.85a.222.222,0,0,1,.052-.16.173.173,0,0,1,.127-.053.164.164,0,0,1,.135.053.24.24,0,0,1,.046.16v.642c0,.092-.239.254-.714.482s-.714.516-.714.863v.871a.636.636,0,0,0,.2.509,1.048,1.048,0,0,0,.672.168,1.838,1.838,0,0,0,.447-.042.357.357,0,0,0,.233-.187v.174H17V13.345a.8.8,0,0,0-.336-.726Zm-.726,3.362a.2.2,0,0,1-.05.149.173.173,0,0,1-.127.05.191.191,0,0,1-.139-.05.2.2,0,0,1-.05-.149v-.787a.271.271,0,0,1,.076-.2.643.643,0,0,1,.291-.127Zm.655-9.612h-1.3a1.77,1.77,0,0,1,.44-.913,3.842,3.842,0,0,1,.393-.413l-.657-.5a6.089,6.089,0,0,0-1.293.978,2.231,2.231,0,0,0-.584,1.543V8.587h3Zm6.839,5.11L21.364,4.54H17.252V19.75h3.008V11.638l2.468,8.112H26.44V4.54H23.432Zm-4.461,5.314-.657-1.569v1.569H17.253V11.442h1.062V13.85l.55-1.391h1.092l-.763,1.9,1.023,2.436ZM27,4.54V6.751h1.3a1.766,1.766,0,0,1-.44.913,3.842,3.842,0,0,1-.393.413l.657.5A6.089,6.089,0,0,0,29.425,7.6a2.229,2.229,0,0,0,.587-1.543V4.53Z" transform="translate(-6.538 -4.53)" fill="#d89033"/>
</svg>
